<svg width="255" height="255" viewBox="0 0 255 255" fill="none" xmlns="http://www.w3.org/2000/svg">
<g clip-path="url(#clip0_1102_8727)">
<rect width="255" height="255" rx="42" fill="#4B0081"/>
<path d="M-11.9099 172.604C-11.8347 164.397 -9.24081 156.41 -4.47897 149.725C-1.53075 145.587 2.16042 142.07 6.37948 139.339C11.3445 136.124 15.9434 132.055 18.08 126.54L36.339 79.4069C38.2653 74.8553 41.4568 70.9517 45.5349 68.1594C49.613 65.3671 54.4065 63.8032 59.3467 63.6533H195.653C200.594 63.8032 205.387 65.3671 209.465 68.1594C213.543 70.9517 216.735 74.8553 218.661 79.4069L236.941 126.55C239.077 132.06 243.67 136.125 248.63 139.337C252.849 142.071 256.54 145.589 259.487 149.73C264.245 156.415 266.836 164.399 266.91 172.604V228.937C266.905 231.426 265.914 233.811 264.154 235.57C262.395 237.33 260.01 238.321 257.521 238.326C250.196 238.326 244.258 244.264 244.258 251.589V267.52C244.253 270.009 243.262 272.394 241.502 274.154C239.743 275.913 237.358 276.904 234.869 276.909H215.538C213.05 276.904 210.664 275.913 208.905 274.154C207.145 272.394 206.154 270.009 206.149 267.52V258.661C206.149 247.43 197.045 238.326 185.814 238.326H69.1859C57.9552 238.326 48.8509 247.43 48.8509 258.661V267.52C48.8457 270.009 47.8549 272.394 46.0952 274.154C44.3356 275.913 41.9505 276.904 39.4621 276.909H20.1309C17.6424 276.904 15.2573 275.913 13.4977 274.154C11.7381 272.394 10.7472 270.009 10.742 267.52V251.589C10.742 244.264 4.80393 238.326 -2.52104 238.326C-5.00952 238.321 -7.39458 237.33 -9.15421 235.57C-10.9138 233.811 -11.9047 231.426 -11.9099 228.937V172.604ZM50.1555 172.722C50.1555 168.696 48.9615 164.76 46.7244 161.412C44.4873 158.064 41.3077 155.454 37.5875 153.913C33.8674 152.372 29.7739 151.969 25.8246 152.755C21.8753 153.54 18.2477 155.479 15.4004 158.326C12.5532 161.174 10.6142 164.801 9.82861 168.751C9.04306 172.7 9.44624 176.793 10.9872 180.513C12.5281 184.234 15.1376 187.413 18.4856 189.65C21.8336 191.887 25.7698 193.081 29.7965 193.081C32.47 193.081 35.1175 192.555 37.5875 191.532C40.0576 190.509 42.302 189.009 44.1925 187.118C46.083 185.228 47.5826 182.984 48.6058 180.513C49.6289 178.043 50.1555 175.396 50.1555 172.722ZM49.9011 105.04C44.7251 118.368 54.5583 132.736 68.857 132.736H186.128C200.42 132.736 210.253 118.381 205.089 105.054L198.811 88.8507C198.42 87.8427 197.963 86.8056 197.067 86.1995C196.188 85.6041 195.077 85.5541 194.015 85.5541H60.9775C59.8946 85.5541 58.7597 85.6104 57.8742 86.2337C57.0264 86.8303 56.5874 87.8215 56.2121 88.7879L49.9011 105.04ZM245.523 172.722C245.523 168.695 244.329 164.758 242.091 161.409C239.853 158.061 236.672 155.452 232.951 153.911C229.229 152.371 225.135 151.969 221.185 152.756C217.235 153.543 213.608 155.484 210.761 158.333C207.915 161.183 205.977 164.812 205.194 168.763C204.411 172.713 204.817 176.807 206.361 180.527C207.904 184.247 210.517 187.425 213.868 189.66C217.218 191.895 221.156 193.085 225.184 193.081C230.583 193.081 235.762 190.936 239.58 187.118C243.398 183.3 245.523 178.122 245.523 172.722Z" fill="url(#paint0_linear_1102_8727)"/>
<path d="M245.523 172.722C245.523 168.695 244.329 164.758 242.091 161.409C239.853 158.061 236.672 155.452 232.951 153.911C229.229 152.371 225.135 151.969 221.185 152.756C217.235 153.543 213.608 155.484 210.761 158.333C207.915 161.183 205.977 164.812 205.194 168.763C204.411 172.713 204.817 176.807 206.361 180.527C207.904 184.247 210.517 187.425 213.868 189.66C217.218 191.895 221.156 193.085 225.184 193.081C230.583 193.081 235.762 190.936 239.58 187.118C243.398 183.3 245.523 178.122 245.523 172.722Z" fill="url(#paint1_linear_1102_8727)"/>
<path d="M50.1555 172.722C50.1555 168.696 48.9615 164.76 46.7244 161.412C44.4873 158.064 41.3077 155.454 37.5875 153.913C33.8674 152.372 29.7739 151.969 25.8246 152.755C21.8753 153.54 18.2477 155.479 15.4004 158.326C12.5532 161.174 10.6142 164.801 9.82861 168.751C9.04306 172.7 9.44624 176.793 10.9872 180.513C12.5281 184.234 15.1376 187.413 18.4856 189.65C21.8336 191.887 25.7698 193.081 29.7965 193.081C32.47 193.081 35.1175 192.555 37.5875 191.532C40.0576 190.509 42.302 189.009 44.1925 187.118C46.083 185.228 47.5826 182.984 48.6058 180.513C49.6289 178.043 50.1555 175.396 50.1555 172.722Z" fill="url(#paint2_linear_1102_8727)"/>
<path d="M14.446 160.868L32.1213 171.073C36.6819 173.706 41.8552 175.092 47.1213 175.092H214.954C220.22 175.092 225.393 173.706 229.954 171.073L247.629 160.868" stroke="#4B0081" stroke-width="9" stroke-linecap="round"/>
<path d="M78.3091 137.645L84.242 125.053C84.6306 124.229 85.2212 123.623 86.2208 123.624L118.292 123.679C119.345 123.68 120.109 125.182 120.109 126.08L120.113 138.657C120.113 142.434 119.147 145.963 117.569 149.375C110.044 165.659 90.9657 172.435 73.9613 169.687C64.9805 168.236 56.8448 163.807 50.6235 157.231C46.4555 152.824 43.4076 147.687 41.4136 142.058C34.9953 123.945 41.2337 103.676 56.8432 92.4529C64.0828 87.2464 72.9125 84.6686 81.9035 84.7195C93.9695 84.7891 105.06 89.9583 112.9 99.012C113.061 99.1987 113.243 99.3362 113.246 99.5602C113.25 99.7978 113.126 100.023 112.864 100.219L101.279 108.779C100.578 109.296 99.972 109.22 99.4035 108.643C91.429 100.544 79.1017 98.766 69.1264 104.164C60.1965 108.997 54.9085 118.47 55.2937 128.653C55.7044 139.521 62.5554 149.189 72.8803 152.809C84.8428 157.004 99.473 152.096 104.467 139.538L79.7211 139.512C78.8013 139.512 77.8509 138.618 78.3091 137.644V137.645Z" fill="white"/>
<path d="M179.08 84.7188C199.516 84.7188 216.084 101.286 216.084 121.723V133.278C216.083 153.715 199.516 170.282 179.08 170.282H166.758C146.322 170.282 129.755 153.715 129.755 133.278V121.723C129.755 101.286 146.322 84.7188 166.758 84.7188H179.08ZM157.08 104.625C155.476 103.753 153.647 105.329 154.27 107.044L160.209 123.384C161.138 125.941 161.212 128.731 160.419 131.334L155.302 148.115C154.78 149.829 156.619 151.302 158.177 150.417L195.732 129.086C197.084 128.318 197.066 126.363 195.7 125.62L157.08 104.625Z" fill="white"/>
</g>
<defs>
<linearGradient id="paint0_linear_1102_8727" x1="164.994" y1="63.6533" x2="86.6521" y2="355.128" gradientUnits="userSpaceOnUse">
<stop stop-color="#4F0084"/>
<stop offset="1" stop-color="white" stop-opacity="0.5"/>
</linearGradient>
<linearGradient id="paint1_linear_1102_8727" x1="164.994" y1="63.6533" x2="86.6521" y2="355.128" gradientUnits="userSpaceOnUse">
<stop stop-color="#4F0084"/>
<stop offset="1" stop-color="white" stop-opacity="0.5"/>
</linearGradient>
<linearGradient id="paint2_linear_1102_8727" x1="164.994" y1="63.6533" x2="86.6521" y2="355.128" gradientUnits="userSpaceOnUse">
<stop stop-color="#4F0084"/>
<stop offset="1" stop-color="white" stop-opacity="0.5"/>
</linearGradient>
<clipPath id="clip0_1102_8727">
<rect width="255" height="255" rx="42" fill="white"/>
</clipPath>
</defs>
</svg>
