<svg width="821" height="195" viewBox="0 0 821 195" fill="none" xmlns="http://www.w3.org/2000/svg">
<path d="M586.932 112.473L595.911 93.4164C596.499 92.1683 597.393 91.2514 598.905 91.254L647.44 91.3362C649.035 91.3387 650.191 93.6116 650.191 94.9702L650.196 114.003C650.196 119.72 648.734 125.06 646.346 130.224C634.958 154.867 606.086 165.122 580.352 160.964C566.761 158.768 554.449 152.065 545.034 142.113C538.726 135.443 534.114 127.669 531.096 119.15C521.383 91.7394 530.824 61.0643 554.447 44.0806C565.403 36.2012 578.765 32.3 592.372 32.3771C610.632 32.4824 627.415 40.3053 639.281 54.0068C639.525 54.2893 639.799 54.4973 639.805 54.8363C639.81 55.1959 639.622 55.5375 639.227 55.8328L621.693 68.787C620.633 69.5703 619.716 69.4548 618.855 68.5816C606.787 56.3259 588.132 53.6344 573.036 61.804C559.521 69.1183 551.519 83.4542 552.102 98.8637C552.723 115.311 563.091 129.942 578.716 135.42C596.82 141.769 618.961 134.341 626.519 115.336L589.069 115.298C587.677 115.298 586.239 113.944 586.932 112.47V112.473Z" fill="#4B0081"/>
<path fill-rule="evenodd" clip-rule="evenodd" d="M732.575 32.376C763.503 32.3762 788.575 57.4482 788.575 88.376V105.863C788.575 136.791 763.503 161.863 732.575 161.863H713.928C683 161.863 657.928 136.791 657.928 105.863V88.376C657.928 57.4481 683 32.376 713.928 32.376H732.575ZM699.281 62.501C696.854 61.1818 694.084 63.5662 695.028 66.1621L704.016 90.8906C705.422 94.7607 705.534 98.9831 704.333 102.922L696.591 128.318C695.8 130.912 698.585 133.141 700.943 131.802L757.776 99.5186C759.821 98.3562 759.794 95.3983 757.727 94.2744L699.281 62.501Z" fill="#4B0081"/>
<path fill-rule="evenodd" clip-rule="evenodd" d="M170.955 56.8667C177.696 56.8667 183.777 58.1322 189.091 60.7893C194.453 63.4309 198.679 67.2249 201.654 72.1642C204.725 77.1327 206.211 82.8082 206.212 89.0664V112.112C206.212 122.849 203.414 131.628 197.237 137.806L197.217 137.826C191.032 143.918 182.216 146.663 171.425 146.663H143.088C138.903 146.663 135.178 145.369 132.26 142.559C129.318 139.727 127.938 136.041 127.938 131.866V56.8667H170.955ZM194.588 135.158C194.667 135.078 194.746 134.998 194.825 134.918L194.832 134.91C194.751 134.993 194.67 135.076 194.588 135.158ZM200.242 126.17C200.157 126.4 200.069 126.627 199.979 126.852C200.026 126.735 200.073 126.618 200.118 126.5L200.242 126.17ZM200.616 125.098C200.537 125.339 200.456 125.579 200.371 125.816L200.492 125.469C200.535 125.346 200.576 125.222 200.616 125.098ZM151.654 124.828H170.955C175.234 124.828 177.882 123.616 179.565 121.73C181.313 119.769 182.495 116.54 182.495 111.406V89.7718C182.494 86.1967 181.376 83.6869 179.355 81.8299L179.315 81.7933C177.233 79.8229 174.412 78.7026 170.484 78.7026H151.654V124.828Z" fill="#4B0081"/>
<path fill-rule="evenodd" clip-rule="evenodd" d="M263.106 56.8667C270.933 56.8667 277.616 58.99 282.764 63.577C288.017 68.1848 290.603 74.2937 290.603 81.5415V89.7718C290.603 94.6187 289.186 98.9955 286.307 102.744C284.617 104.958 282.495 106.797 280.005 108.292C280.818 109.192 281.536 110.152 282.149 111.174L282.439 111.647C283.786 113.897 285.018 116.737 286.168 120.08L286.413 120.804L286.423 120.834L286.432 120.865L294.549 146.663H269.894L262.83 124.539L262.822 124.511L262.813 124.484C261.908 121.49 260.772 119.673 259.64 118.64C258.593 117.684 257.287 117.151 255.464 117.151H239.338V146.663H215.621V56.8667H263.106ZM239.338 95.668H260.049C262.656 95.6679 264.236 95.0035 265.246 94.0941C266.306 93.0647 266.886 91.7676 266.886 89.8894V82.2469C266.886 80.8122 266.476 80.0642 265.943 79.5611L265.904 79.5245L265.866 79.4864C265.282 78.9023 264.42 78.4675 262.871 78.4674H239.338V95.668ZM263.106 60.6122C263.545 60.6122 263.979 60.6196 264.407 60.6341C264.196 60.627 263.984 60.6216 263.771 60.6179L263.106 60.6122Z" fill="#4B0081"/>
<path d="M326.019 146.663H302.302V56.8667H326.019V146.663Z" fill="#4B0081"/>
<path fill-rule="evenodd" clip-rule="evenodd" d="M375.239 111.378L394.449 56.8667H419.366L384.858 146.663H374.642C371.635 146.663 368.858 145.816 366.506 144.003C364.197 142.223 362.546 139.705 361.394 136.756L361.387 136.738L361.381 136.72L331.122 56.8667H356.134L375.239 111.378Z" fill="#4B0081"/>
<path fill-rule="evenodd" clip-rule="evenodd" d="M494.041 78.4674H447.479V90.0242H490.514L483.141 111.625H447.479V125.063H494.041L485.764 146.663H438.913C434.728 146.663 431.003 145.369 428.085 142.559C425.143 139.727 423.762 136.041 423.762 131.866V56.8667H503.691L494.041 78.4674ZM427.555 133.043L427.558 133.07C427.549 132.972 427.542 132.874 427.536 132.775L427.555 133.043Z" fill="#4B0081"/>
<path d="M67.7824 150.065C60.7448 150.065 54.5503 148.672 49.1988 145.887C43.9206 143.174 39.7787 139.362 36.773 134.451C33.8407 129.539 32.3745 123.858 32.3745 117.406C32.3745 113.521 33.0343 109.452 34.3538 105.201C35.6734 100.875 37.7993 96.8435 40.7317 93.1047C43.664 89.366 47.5127 86.3237 52.2777 83.9779C57.1161 81.632 62.9807 80.459 69.8717 80.459C74.8567 80.459 79.0353 81.0089 82.4075 82.1085C85.853 83.2081 88.6387 84.6376 90.7646 86.397C92.9639 88.1564 94.6133 90.0258 95.7129 92.0051C96.8859 93.9844 97.6556 95.8905 98.0221 97.7232C98.462 99.4826 98.6819 100.949 98.6819 102.122C98.6819 109.233 95.6763 114.731 89.665 118.616C83.727 122.428 75.2965 124.334 64.3736 124.334C61.8811 124.334 59.4986 124.224 57.226 124.004C55.0268 123.784 52.9742 123.528 51.0681 123.234C52.461 126.9 54.7702 129.612 57.9958 131.372C61.2213 133.058 64.5569 133.901 68.0024 133.901C72.9873 133.901 77.3858 133.021 81.1979 131.262C85.0099 129.429 88.602 126.643 91.9742 122.905L101.761 136.98C99.415 138.886 96.7759 140.865 93.8436 142.918C90.9845 144.97 87.4657 146.656 83.2872 147.976C79.1086 149.369 73.9403 150.065 67.7824 150.065ZM70.2016 96.9534C65.8764 96.9534 62.0644 98.0531 58.7655 100.252C55.4666 102.452 53.0475 105.347 51.508 108.939C53.3407 109.233 55.1368 109.489 56.8962 109.709C58.7289 109.856 60.5249 109.929 62.2843 109.929C63.8971 109.929 65.7298 109.782 67.7824 109.489C69.9084 109.196 71.961 108.756 73.9403 108.17C75.993 107.583 77.6791 106.85 78.9986 105.97C80.3182 105.017 80.978 103.918 80.978 102.671C80.978 102.085 80.6847 101.352 80.0982 100.472C79.5118 99.5925 78.4488 98.7861 76.9093 98.053C75.3699 97.32 73.134 96.9534 70.2016 96.9534Z" fill="#4B0081"/>
<path d="M103.813 106.986H117.357C119.426 106.986 121.103 108.663 121.103 110.731V123.539H107.559C105.49 123.539 103.813 121.862 103.813 119.793V106.986Z" fill="#4B0081"/>
</svg>
